<svg fill="none" height="640" viewBox="0 0 520 640" width="520" xmlns="http://www.w3.org/2000/svg"><path d="m577.659 431.472-118.936-91.61 2.365 17.715c1.135 7.208 1.704 14.493 1.703 21.79-.014 6.335-.425 12.663-1.23 18.947l87.996 67.832c8.171 5.8 13.886 14.445 16.026 24.242 2.139 9.797.551 20.04-4.456 28.726-5.006 8.686-13.069 15.189-22.612 18.236s-19.877 2.418-28.982-1.763l-132.467-54.852c17.94-10.114 32.872-24.823 43.264-42.619 10.392-17.797 15.87-38.04 15.873-58.654-.023-7.406-.72-14.795-2.082-22.074l-30.183-227.368c-2.654-20.369-12.619-39.0763-28.036-52.6299-15.417-13.5537-35.233-21.0278-55.75-21.0278s-40.333 7.4741-55.75 21.0278c-15.417 13.5536-25.382 32.2609-28.036 52.6299l-19.776 148.926 14.099-10.894c5.69-4.577 11.733-8.696 18.072-12.316 5.386-3.099 10.946-5.882 16.653-8.337l14.666-110.178c.968-9.956 5.603-19.195 13.002-25.917s17.032-10.445 27.022-10.445c9.991 0 19.624 3.723 27.023 10.445s12.034 15.961 13.002 25.917l18.924 142.104c-21.143-12.425-45.668-17.843-70.07-15.478s-47.434 12.391-65.804 28.646l-180.8186 139.263c-16.3407 12.473-27.5821 30.48-31.6207 50.651-4.0386 20.172-.5976 41.126 9.6791 58.94 10.2767 17.815 26.6849 31.27 46.154 37.848 19.4692 6.577 40.6652 5.826 59.6212-2.113l138.617-57.315-16.464-6.821c-6.75-2.677-13.296-5.844-19.586-9.474-5.407-3.109-10.592-6.591-15.517-10.421l-102.757 42.536c-9.105 4.181-19.44 4.81-28.982 1.763-9.5428-3.047-17.6064-9.55-22.6127-18.236s-6.5949-18.929-4.4549-28.726c2.1399-9.797 7.8545-18.442 16.0251-24.242l113.5435-87.537v.853c.019 23.72 7.28 46.868 20.81 66.341 13.529 19.472 32.68 34.338 54.886 42.606l214.314 88.389c18.947 7.876 40.11 8.581 59.539 1.983 19.428-6.598 35.795-20.048 46.048-37.84 10.252-17.793 13.688-38.712 9.668-58.855s-15.222-38.133-31.517-50.614zm-329.655-52.295c.019-14.198 4.241-28.073 12.134-39.869 7.892-11.797 19.1-20.986 32.207-26.407s27.525-6.829 41.431-4.048c13.907 2.782 26.677 9.629 36.698 19.675 10.021 10.047 16.843 22.842 19.603 36.77 2.759 13.927 1.333 28.361-4.098 41.477s-14.624 24.325-26.416 32.212c-11.793 7.886-25.656 12.096-39.837 12.096-9.427 0-18.761-1.861-27.469-5.476-8.707-3.615-16.618-8.913-23.279-15.591-6.662-6.678-11.943-14.606-15.541-23.329-3.599-8.723-5.445-18.071-5.433-27.51z" fill="#fff"/></svg>