<svg fill="none" height="46" viewBox="0 0 176 46" width="176" xmlns="http://www.w3.org/2000/svg"><g fill="#0056d5"><path d="m58.1737 12.5984c-.9531-.4644-1.9992-.7077-3.0599-.7116-2.7031 0-5.2386 1.6711-5.2386 5.0566v14.9596c-.0022.077.0114.1537.0399.2254.0286.0716.0715.1367.1262.1912.0546.0545.1199.0973.1917.1258.0719.0285.1488.042.2261.0398h2.3895c.0775.0022.1547-.0113.2268-.0398.0722-.0284.1378-.0711.1929-.1255s.0985-.1195.1277-.1911c.0291-.0717.0434-.1485.0419-.2258v-10.9057h3.0977c.0778.0015.1551-.0127.2272-.0417.0722-.0291.1377-.0723.1928-.1272.055-.0548.0983-.1202.1274-.1921.0291-.072.0433-.149.0419-.2266v-1.4178c.0014-.0776-.0128-.1546-.0419-.2266-.0291-.0719-.0724-.1373-.1274-.1922-.0551-.0548-.1206-.098-.1928-.127-.0721-.0291-.1494-.0433-.2272-.0418h-3.0977v-1.5041c-.0212-.2556.0143-.5129.1041-.7533s.2316-.4582.4153-.6378c.1838-.1796.4049-.3167.6478-.4014.2428-.0847.5014-.1151.7574-.0888.4937.0124.9795.1262 1.4272.3342.0667.0432.1421.0711.2209.0819s.159.0041.2349-.0196.1456-.0638.2042-.1174.1046-.1195.1347-.1929l.8379-1.6172c.0827-.1515.1029-.329.0565-.4951-.0464-.166-.1559-.3075-.3051-.3944z"/><path d="m73.5496 17.779h-2.3895c-.0775-.0015-.1546.0127-.2265.0418-.0718.029-.137.0723-.1916.1273-.0546.0549-.0974.1203-.1259.1923-.0285.0719-.0421.1489-.0399.2262v1.752c-.5494-.8257-1.3076-1.4922-2.1979-1.9323-.8904-.4401-1.8814-.6383-2.873-.5744-4.1465.0431-6.9145 3.0512-6.9145 7.477 0 4.5122 2.8058 7.6065 7.028 7.6065.9717.0456 1.9386-.1616 2.8058-.601.8672-.4395 1.6049-1.0962 2.1408-1.9057v1.7574c-.0022.077.0113.1538.0399.2254.0285.0716.0715.1367.1261.1912.0547.0546.12.0974.1918.1258.0719.0285.1488.042.2261.0398h2.3895c.0775.0022.1547-.0113.2268-.0397.0722-.0284.1378-.0712.1929-.1256s.0985-.1194.1277-.1911c.0291-.0717.0434-.1485.0419-.2258v-13.5795c.0073-.0781-.0026-.1568-.0289-.2306-.0264-.0739-.0685-.1411-.1236-.1971-.0551-.0559-.1217-.0992-.1953-.1268-.0736-.0277-.1523-.039-.2307-.0331zm-3.0599 7.4986c.0015.4361-.0401.8713-.1243 1.2992-.1927.9029-.6959 1.7102-1.4225 2.2822s-1.631.8726-2.5564.8499c-2.476 0-4.1898-1.8383-4.1898-4.5121 0-2.6739 1.757-4.5122 4.1898-4.5122.9272-.0302 1.8353.2677 2.5635.8409s1.2296 1.3848 1.4154 2.2912c.1026.4232.1445.8588.1243 1.2938z"/><path d="m80.588 21.7089c0-.9219.838-1.2992 2.0111-1.2992 1.3357.0534 2.6413.4111 3.8168 1.0458.1442.0769.3131.094.47.0476s.2891-.1526.3679-.2956l.7515-1.5472c.0667-.1389.0781-.2979.032-.445-.0461-.147-.1464-.2712-.2807-.3474-1.5188-.8217-3.2188-1.2534-4.9466-1.2561-2.9734 0-5.5738 1.4232-5.5738 4.4313-.0432 5.2183 7.7092 3.7736 7.7092 6.469 0 .9596-.9191 1.38-2.1625 1.38-1.5867-.0343-3.129-.5289-4.4384-1.4231-.0729-.0475-.1552-.0787-.2412-.0916-.0861-.0129-.174-.0071-.2576.017-.0836.024-.1611.0657-.2271.1223s-.119.1268-.1553.2056l-.7244 1.407c-.0582.1269-.0733.2692-.043.4054.0302.1362.1041.2588.2106.3494 1.673 1.1554 3.663 1.7673 5.698 1.752 3.1464 0 5.8278-1.4609 5.8278-4.469-.0054-5.2507-7.8443-3.9677-7.8443-6.4582z"/><path d="m98.2718 29.5903c-.0232-.0796-.063-.1534-.1169-.2166-.0538-.0631-.1205-.1142-.1955-.1498-.0751-.0357-.1569-.0551-.24-.057s-.1657.0138-.2423.046c-.4646.197-.9607.3102-1.465.3343-1.011 0-1.5948-.7116-1.5948-2.2965v-6.2534h3.6437c.0778.0014.1551-.0127.2272-.0418.0722-.029.1377-.0722.1928-.1271.055-.0548.0983-.1202.1274-.1921.0291-.072.0433-.1491.0419-.2266v-1.4178c.0014-.0776-.0128-.1546-.0419-.2266s-.0724-.1373-.1274-.1922c-.0551-.0548-.1206-.098-.1928-.1271-.0721-.029-.1494-.0432-.2272-.0417h-3.6437v-3.4663c.0014-.0776-.0128-.1547-.0419-.2266-.0291-.072-.0725-.1373-.1275-.1922-.055-.0548-.1205-.0981-.1927-.1271-.0721-.029-.1494-.0432-.2272-.0417h-2.3841c-.0778-.0015-.1551.0127-.2273.0417-.0721.029-.1377.0723-.1927.1271-.055.0549-.0983.1202-.1274.1922-.0291.0719-.0434.149-.0419.2266v12.911c0 3.2345 1.93 4.8518 4.4439 4.8518 1.1132-.0197 2.2054-.3062 3.1842-.8356.1279-.0621.2283-.169.2822-.3002.0538-.1313.0573-.2777.0097-.4114z"/><path d="m132.255 17.655c-4.692 0-7.833 3.0081-7.833 7.4771s3.141 7.5202 7.833 7.5202c4.606 0 7.796-3.0512 7.796-7.5202s-3.19-7.4771-7.796-7.4771zm0 11.9892c-2.47 0-4.189-1.8383-4.189-4.469s1.719-4.469 4.189-4.469c2.471 0 4.147 1.8383 4.147 4.469s-1.719 4.469-4.147 4.469z"/><path d="m150.646 17.6549c-.918.068-1.802.3732-2.566.8855-.765.5123-1.382 1.2141-1.791 2.0364v-2.2534c.002-.0773-.011-.1542-.04-.2262-.028-.0719-.071-.1373-.126-.1923-.054-.0549-.12-.0982-.191-.1273-.072-.029-.149-.0433-.227-.0418h-2.389c-.078-.0015-.155.0128-.227.0418-.072.0291-.137.0724-.192.1273-.054.055-.097.1204-.125.1923-.029.072-.043.1489-.04.2262v13.5364c-.003.0773.011.1543.04.2262.028.0719.071.1373.125.1923.055.0549.12.0982.192.1273s.149.0433.227.0418h2.389c.078.0015.155-.0127.227-.0418.071-.0291.137-.0724.191-.1273.055-.055.098-.1204.126-.1923.029-.0719.042-.1489.04-.2262v-6.4367c0-2.5067 1.676-4.2587 4.444-4.3126.154-.0028.301-.065.41-.1736.108-.1086.171-.2551.174-.4086v-2.2049c.009-.09-.002-.1811-.032-.2664-.031-.0853-.08-.1628-.144-.2268-.064-.0641-.142-.113-.228-.1433-.085-.0303-.176-.0412-.267-.032z"/><path d="m166.908 31.6118-5.195-8.1509 4.481-4.6793c.083-.0825.139-.1876.162-.302.022-.1144.01-.2328-.035-.3403-.046-.1075-.122-.1992-.219-.2633-.098-.0642-.212-.098-.329-.0971h-2.471c-.154.0036-.302.063-.416.1672l-5.909 5.9299v-11.2345c.001-.0776-.013-.1547-.042-.2266-.029-.072-.072-.1373-.127-.1922-.056-.0548-.121-.0981-.193-.1271s-.15-.0432-.227-.0417h-2.385c-.077-.0015-.155.0127-.227.0417s-.137.0723-.192.1271c-.056.0549-.099.1202-.128.1922-.029.0719-.043.149-.042.2266v19.2614c-.001.0774.013.1542.042.2258.029.0717.073.1367.128.1912.055.0544.12.0971.193.1255.072.0284.149.0419.226.0397h2.385c.077.0022.154-.0113.226-.0397.073-.0284.138-.0711.193-.1255.055-.0545.099-.1195.128-.1912.029-.0716.043-.1484.042-.2258v-3.4717l2.26-2.3773 3.816 6.1833c.055.085.129.1559.216.2065.088.0507.186.0797.287.0846h2.849c.106-.0027.21-.033.3-.0881.091-.0551.165-.1329.216-.2257s.077-.1974.074-.3031c-.002-.1058-.032-.2091-.087-.2996z"/><path d="m122.151 19.5741v-1.1698c.001-.0773-.013-.1541-.042-.2258-.03-.0717-.073-.1367-.128-.1911-.055-.0545-.121-.0972-.193-.1256s-.149-.0419-.227-.0397h-2.384c-.077-.0022-.155.0113-.227.0397s-.137.0711-.193.1256c-.055.0544-.098.1194-.127.1911s-.044.1485-.042.2258v3.6766c0 1.4663.043 2.9272 0 4.3881.003.5711-.179 1.128-.519 1.5876-.34.4595-.82.7971-1.368.9623-.356.0934-.728.1104-1.092.0499-.363-.0605-.709-.1972-1.016-.4009-.306-.2038-.566-.4701-.762-.7813s-.323-.6602-.374-1.0241c-.021-.4184-.021-.8376 0-1.256v-7.2238c.002-.0775-.012-.1546-.041-.2265-.03-.072-.073-.1374-.128-.1922-.055-.0549-.12-.0981-.193-.1271-.072-.029-.149-.0432-.227-.0418h-2.384c-.078-.0014-.155.0128-.227.0418s-.138.0722-.193.1271c-.055.0548-.098.1202-.127.1922-.029.0719-.044.149-.042.2265v3.6604c0 1.4609.043 2.9219 0 4.3828 0 .5869-.193 1.1577-.548 1.6257s-.854.8076-1.42.9673c-.36.0865-.735.0951-1.098.025-.364-.07-.708-.2171-1.01-.4312s-.554-.4902-.74-.8098c-.185-.3196-.3-.6752-.336-1.0428-.022-.3896-.022-.7802 0-1.1698v-7.2237c.001-.0776-.013-.1547-.042-.2266-.029-.072-.073-.1373-.128-.1922-.055-.0548-.12-.0981-.192-.1271s-.15-.0432-.228-.0417h-2.427c-.078-.0015-.155.0127-.227.0417s-.138.0723-.193.1271c-.055.0549-.098.1202-.127.1922-.029.0719-.044.149-.042.2266v8.1887c.009 1.4169.511 2.7866 1.42 3.8758.909 1.0891 2.169 1.8303 3.564 2.0972 1.07.207 2.179.0817 3.175-.3588.997-.4405 1.834-1.1751 2.399-2.1048.43.7032 1.017 1.2987 1.714 1.7408.697.442 1.487.7188 2.308.809 1.549.0959 3.077-.3972 4.276-1.38.972-.82 1.673-1.9135 2.012-3.1375.193-.8627.264-1.7483.21-2.6307-.065-1.9623-.064-3.9245-.064-5.8922z"/><path d="m39.1141 29.3425-6.746-5.2124.1342 1.008c.0644.4101.0967.8246.0966 1.2398-.0008.3604-.0241.7205-.0698 1.078l4.9911 3.8594c.4634.33.7875.8218.9089 1.3793.1214.5574.0313 1.1402-.2527 1.6344-.2839.4942-.7413.8642-1.2825 1.0375-.5413.1734-1.1275.1376-1.6438-.1002l-7.5134-3.121c1.0175-.5754 1.8645-1.4123 2.4539-2.4249.5894-1.0125.9001-2.1643.9003-3.3372-.0013-.4213-.0409-.8417-.1181-1.2559l-1.712-12.9364c-.1505-1.159-.7157-2.22334-1.5901-2.99449-.8745-.77116-1.9984-1.19641-3.1621-1.19641s-2.2876.42525-3.1621 1.19641c-.8744.77115-1.4396 1.83549-1.5901 2.99449l-1.1217 8.4734.7997-.6199c.3227-.2604.6654-.4947 1.025-.7007.3055-.1763.6208-.3347.9445-.4744l.8319-6.2687c.0549-.5665.3178-1.0922.7374-1.4746.4197-.3824.966-.5943 1.5327-.5943s1.113.2119 1.5327.5943c.4196.3824.6825.9081.7374 1.4746l1.0734 8.0852c-1.1992-.707-2.5902-1.0152-3.9743-.8806-1.3841.1345-2.6904.705-3.7323 1.6299l-10.25582 7.9235c-.92682.7097-1.56442 1.7342-1.79349 2.8819-.22906 1.1477-.03389 2.3399.54899 3.3535.58289 1.0136 1.51352 1.7791 2.61782 2.1534 1.1042.3742 2.3064.3315 3.3816-.1202l7.8622-3.2611-.9338-.3881c-.3828-.1523-.7541-.3324-1.1109-.539-.3067-.1769-.6008-.375-.8801-.5929l-5.8283 2.4202c-.5164.2378-1.1025.2736-1.6438.1002-.5412-.1733-.9986-.5433-1.2826-1.0375-.2839-.4942-.374-1.077-.2526-1.6344.1213-.5575.4455-1.0493.9089-1.3793l6.4401-4.9806v.0485c.001 1.3497.4129 2.6667 1.1802 3.7746.7674 1.1079 1.8536 1.9538 3.1131 2.4241l12.1556 5.0291c1.0747.4481 2.275.4882 3.377.1128s2.0303-1.1406 2.6118-2.153c.5815-1.0123.7764-2.2025.5484-3.3486-.228-1.146-.8634-2.1696-1.7876-2.8797zm-18.6976-2.9754c.001-.8079.2405-1.5973.6882-2.2685.4476-.6712 1.0833-1.194 1.8267-1.5024s1.5612-.3886 2.3499-.2303c.7888.1582 1.5131.5478 2.0815 1.1194s.9553 1.2996 1.1118 2.0921c.1566.7924.0757 1.6136-.2324 2.3599-.308.7462-.8294 1.384-1.4983 1.8327-.6688.4487-1.4551.6882-2.2595.6882-.5346 0-1.064-.1058-1.5579-.3115s-.9426-.5071-1.3204-.8871c-.3779-.38-.6774-.831-.8815-1.3273-.2041-.4964-.3088-1.0282-.3081-1.5652z"/></g></svg>